<?xml version="1.0" encoding="utf-8"?>
<svg width="102" height="35" viewBox="0 0 102 35" fill="none" xmlns="http://www.w3.org/2000/svg">
<path fill-rule="evenodd" clip-rule="evenodd" d="M63.1288 17.9922C65.3362 17.9922 66.5482 16.1197 66.5482 13.8339C66.5482 11.3973 65.2152 9.58408 63.1288 9.58408C61.0423 9.58408 59.7094 11.3973 59.7094 13.8339C59.7094 16.1197 60.9201 17.9922 63.1288 17.9922ZM63.1288 7.17042C66.9216 7.17042 69.3031 10.0579 69.3031 13.8339C69.3031 17.6556 66.7608 20.4973 63.1288 20.4973C59.4954 20.4973 56.9545 17.6556 56.9545 13.8339C56.9545 10.0579 59.336 7.17042 63.1288 7.17042Z" fill="#444445"/>
<path fill-rule="evenodd" clip-rule="evenodd" d="M13.7493 12.7115C13.7493 11.162 15.0238 9.65031 16.7607 9.65031C18.5429 9.65031 19.7721 11.0893 19.7721 12.7115H13.7493ZM20.1336 17.1053C20.1336 17.1053 18.8897 18.0355 17.1568 18.0355C15.3175 18.0355 13.7493 16.5467 13.7493 14.8142H22.4473C22.4473 14.8142 22.5098 14.2972 22.5098 13.6215C22.5098 11.1688 21.1157 7.22319 16.7793 7.22319C13.1872 7.22319 10.8483 10.2157 10.8483 13.6215C10.8483 17.9305 13.5181 20.5488 17.0598 20.5488C19.6459 20.5488 21.5356 18.9536 21.5356 18.9536L20.1336 17.1053Z" fill="#444445"/>
<path fill-rule="evenodd" clip-rule="evenodd" d="M86.5436 12.7115C86.5436 11.162 87.8181 9.65031 89.5563 9.65031C91.3371 9.65031 92.5664 11.0893 92.5664 12.7115H86.5436ZM92.9292 17.1053C92.9292 17.1053 91.684 18.0355 89.951 18.0355C88.1131 18.0355 86.5436 16.5467 86.5436 14.8142H95.2416C95.2416 14.8142 95.3054 14.2972 95.3054 13.6215C95.3054 11.1688 93.91 7.22319 89.5736 7.22319C85.9815 7.22319 83.6425 10.2157 83.6425 13.6215C83.6425 17.9305 86.3137 20.5488 89.854 20.5488C92.4402 20.5488 94.3299 18.9536 94.3299 18.9536L92.9292 17.1053Z" fill="#444445"/>
<path fill-rule="evenodd" clip-rule="evenodd" d="M35.0579 11.4602V20.3529H32.1888V12.9275C32.1888 10.8867 31.7715 9.89194 30.0664 9.89194C28.6086 9.89194 26.7932 11.3673 26.7932 12.9275V20.3516H23.9453V7.6156H26.7932V8.7854C26.7932 8.7854 28.2763 7.17002 30.4239 7.17002C33.0698 7.17002 35.0579 8.53906 35.0579 11.4602Z" fill="#444445"/>
<path fill-rule="evenodd" clip-rule="evenodd" d="M82.0663 11.4602V20.3529H79.1971V12.9275C79.1971 10.8867 78.7785 9.89194 77.0734 9.89194C75.6169 9.89194 73.8002 11.3673 73.8002 12.9275V20.3516H70.9536V7.6156H73.8002V8.7854C73.8002 8.7854 75.2833 7.17002 77.4322 7.17002C80.0782 7.17002 82.0663 8.53906 82.0663 11.4602Z" fill="#444445"/>
<path fill-rule="evenodd" clip-rule="evenodd" d="M37.5238 10.4845H36.2347V7.61587H37.5238V5.09183L40.3731 3.2651V7.61587H42.6721V10.4845H40.3731V15.6861C40.3731 17.6205 43.1173 17.4657 43.1173 17.4657V20.3532C40.0143 20.3532 37.5238 19.4889 37.5238 15.6861V10.4845Z" fill="#444445"/>
<mask id="mask0" mask-type="alpha" maskUnits="userSpaceOnUse" x="0" y="0" width="102" height="35">
<path fill-rule="evenodd" clip-rule="evenodd" d="M0.5 34.1402H101.124V0.000403846H0.5V34.1402Z" fill="white"/>
</mask>
<g mask="url(#mask0)">
<path fill-rule="evenodd" clip-rule="evenodd" d="M45.3015 20.365H48.1574V7.62771H45.3015V20.365Z" fill="#444445"/>
<path fill-rule="evenodd" clip-rule="evenodd" d="M45.3015 6.1456H48.1574V3.27694H45.3015V6.1456Z" fill="#444445"/>
<path fill-rule="evenodd" clip-rule="evenodd" d="M88.5033 24.5533L81.8705 28.5473V24.5533H53.9786V3.11312H98.0358L98.0491 24.5533H88.5033ZM101.107 -0.000538462H50.906V27.6656H78.798V34.1406L89.5465 27.6656H101.123L101.107 -0.000538462Z" fill="#444445"/>
<path fill-rule="evenodd" clip-rule="evenodd" d="M10.1915 16.6517C10.1915 18.333 8.49442 20.5488 5.31824 20.5488C2.55535 20.5488 0.500801 18.3303 0.500801 18.3303L2.16199 16.4592C2.16199 16.4592 3.86171 17.9843 5.29033 17.9843C6.4917 17.9843 7.2997 17.4378 7.2997 16.6517C7.2997 14.5086 0.801143 14.9326 0.801143 10.9009C0.801143 9.41069 2.13408 7.22319 5.65313 7.22319C8.25521 7.22319 9.88716 9.09569 9.88716 9.09569L8.50638 10.9722C8.50638 10.9722 7.18142 9.67723 5.5003 9.67723C4.48499 9.67723 3.63712 10.0986 3.63712 10.847C3.63712 12.5553 10.1915 12.2565 10.1915 16.6517Z" fill="#444445"/>
</g>
</svg>
